<svg width="30" height="30" viewBox="0 0 30 30" fill="none" xmlns="http://www.w3.org/2000/svg">
  <path d="M30 15.3332C30 14.0999 29.8979 13.1999 29.6769 12.2665H15.3063V17.8332H23.7416C23.5715 19.2166 22.6531 21.2999 20.6123 22.6999L20.5837 22.8863L25.1274 26.3359L25.4422 26.3666C28.3333 23.75 30 19.8999 30 15.3332Z" fill="#4285F4"/>
  <path d="M15.3055 30C19.438 30 22.9072 28.6666 25.4413 26.3665L20.6114 22.6998C19.319 23.5832 17.5842 24.1998 15.3055 24.1998C11.258 24.1998 7.82266 21.5831 6.59808 17.9665L6.41858 17.9814L1.694 21.5648L1.63221 21.7331C4.14915 26.6331 9.31916 30 15.3055 30Z" fill="#34A853"/>
  <path d="M6.59847 17.9669C6.27535 17.0336 6.08835 16.0335 6.08835 15.0002C6.08835 13.9668 6.27535 12.9668 6.58146 12.0335L6.5729 11.8346L1.7891 8.19376L1.63259 8.26672C0.595234 10.3001 0 12.5835 0 15.0002C0 17.4168 0.595234 19.7002 1.63259 21.7335L6.59847 17.9669Z" fill="#FBBC05"/>
  <path d="M15.3056 5.80001C18.1796 5.80001 20.1184 7.01668 21.2238 8.03342L25.5435 3.90003C22.8905 1.48335 19.4381 0 15.3056 0C9.31915 0 4.14916 3.36667 1.63221 8.26666L6.58111 12.0334C7.8227 8.41672 11.258 5.80001 15.3056 5.80001Z" fill="#EB4335"/>
</svg>
