<svg width="297" height="130" viewBox="0 0 297 130" fill="none" xmlns="http://www.w3.org/2000/svg">
  <path d="M101.583 62.9167V85.8333L57.5 73.3333L101.583 62.9167Z" fill="#828FA3"/>
  <path d="M143.25 85.5492L159.917 115H182.833L156.928 71.25L143.25 85.5492Z" fill="#828FA3"/>
  <path d="M114.083 15V115H137V92.0833L143.25 85.5492L156.928 71.25L182.833 44.1667H155.75L137 62.9167V15H114.083Z" fill="#DCF4FF"/>
  <path d="M216.167 87.9167L253.667 73.3333L216.167 60.8333L207.833 71.25L216.167 87.9167Z" fill="#828FA3"/>
  <path d="M195.333 115L170.333 71.25L195.333 44.1667H220.333L195.333 71.25L220.333 115H195.333Z" fill="#DCF4FF"/>
  <path d="M106.883 54.266L99.9276 55.9096L55.8443 66.3263L28.8722 72.6997L55.5358 80.2603L99.6192 92.7602L106.883 94.82V115V122.2H114.083H137H144.2V115V101.847L153.65 118.546L155.718 122.2H159.917H182.833H191.155H195.333H195.464H220.333H232.74L226.585 111.428L217.31 95.1973L218.776 94.6271L256.276 80.0438L274.872 72.8122L255.943 66.5028L220.438 54.6678L225.624 49.0503L236.778 36.9667H220.333H199.684H195.333H192.181H182.833H155.75H152.768L150.659 39.0755L144.2 45.5343V15V7.8H137H114.083H106.883V15V54.266Z" stroke="#10111A" stroke-width="14.4"/>
</svg>
