<svg width="700" height="200" viewBox="0 0 700 200" fill="none" xmlns="http://www.w3.org/2000/svg">
<path d="M130.828 95.8333V141.667L0 112.5L130.828 95.8333Z" fill="#828FA3"/>
<path d="M215.233 141.098L248.995 200H295.418L242.94 112.5L215.233 141.098Z" fill="#828FA3"/>
<path d="M156.15 0V200H202.572V154.167L215.233 141.098L242.94 112.5L295.418 58.3333H240.555L202.572 95.8333V0H156.15Z" fill="#DCF4FF"/>
<path d="M320.74 200L270.096 112.5L320.74 58.3333H371.383L320.74 112.5L371.383 200H320.74Z" fill="#DCF4FF"/>
<path d="M623 155.5L700 126.111L624.035 101.111L601 121.438L623 155.5Z" fill="#828FA3"/>
<path d="M607.154 43.3604L559.605 43.3968L521.201 117.363L566.921 137.222L585.242 86.7105L607.188 86.6937L607.154 43.3604Z" fill="#DCF4FF"/>
<path fill-rule="evenodd" clip-rule="evenodd" d="M398.673 57.7778L424.277 115.556L570.691 187.833L625.442 187.778L607.154 166.111L585.209 130L566.921 137.222L521.201 117.363L398.673 57.7778Z" fill="#828FA3"/>
<path d="M347.467 115.556L395 200H489.5L508.399 162.504H438.923L424.277 115.556L398.673 57.7778L347.467 115.556Z" fill="#DCF4FF"/>
</svg>
